<mxfile host="app.diagrams.net" modified="2024-05-15T14:02:58.094Z" agent="Mozilla/5.0 (Windows NT 10.0; Win64; x64) AppleWebKit/537.36 (KHTML, like Gecko) Chrome/123.0.0.0 Safari/537.36 OPR/109.0.0.0" etag="EXv_c1-cp8O-u07_EuKO" version="24.4.0" type="device">
  <diagram name="Page-1" id="XwcXXYd_yNbLFrGs85ly">
    <mxGraphModel dx="1233" dy="644" grid="1" gridSize="10" guides="1" tooltips="1" connect="1" arrows="1" fold="1" page="1" pageScale="1" pageWidth="827" pageHeight="1169" math="0" shadow="0">
      <root>
        <mxCell id="0" />
        <mxCell id="1" parent="0" />
        <mxCell id="GJRPg27RzttZ9NQ3WM4D-1" style="edgeStyle=orthogonalEdgeStyle;rounded=0;orthogonalLoop=1;jettySize=auto;html=1;entryX=0;entryY=0.5;entryDx=0;entryDy=0;endArrow=none;endFill=0;exitX=1.001;exitY=0.448;exitDx=0;exitDy=0;exitPerimeter=0;" edge="1" parent="1" source="GJRPg27RzttZ9NQ3WM4D-2" target="GJRPg27RzttZ9NQ3WM4D-56">
          <mxGeometry relative="1" as="geometry">
            <Array as="points">
              <mxPoint x="423.75" y="271" />
            </Array>
          </mxGeometry>
        </mxCell>
        <mxCell id="GJRPg27RzttZ9NQ3WM4D-2" value="ADMIN" style="rounded=0;whiteSpace=wrap;html=1;" vertex="1" parent="1">
          <mxGeometry x="318.75" y="252" width="105" height="40" as="geometry" />
        </mxCell>
        <mxCell id="GJRPg27RzttZ9NQ3WM4D-3" value="MANAGE" style="rhombus;whiteSpace=wrap;html=1;" vertex="1" parent="1">
          <mxGeometry x="325" y="442" width="92.5" height="80" as="geometry" />
        </mxCell>
        <mxCell id="GJRPg27RzttZ9NQ3WM4D-4" value="REPORTS" style="rounded=0;whiteSpace=wrap;html=1;" vertex="1" parent="1">
          <mxGeometry x="128.75" y="462" width="105" height="40" as="geometry" />
        </mxCell>
        <mxCell id="GJRPg27RzttZ9NQ3WM4D-5" style="edgeStyle=orthogonalEdgeStyle;rounded=0;orthogonalLoop=1;jettySize=auto;html=1;entryX=0.5;entryY=0;entryDx=0;entryDy=0;endArrow=none;endFill=0;exitX=0.5;exitY=1;exitDx=0;exitDy=0;" edge="1" parent="1" source="GJRPg27RzttZ9NQ3WM4D-6" target="GJRPg27RzttZ9NQ3WM4D-52">
          <mxGeometry relative="1" as="geometry">
            <mxPoint x="642.25" y="293" as="sourcePoint" />
            <Array as="points" />
          </mxGeometry>
        </mxCell>
        <mxCell id="GJRPg27RzttZ9NQ3WM4D-6" value="CELL CLOCKS" style="rounded=0;whiteSpace=wrap;html=1;" vertex="1" parent="1">
          <mxGeometry x="589.75" y="251" width="105" height="40" as="geometry" />
        </mxCell>
        <mxCell id="GJRPg27RzttZ9NQ3WM4D-7" value="ADMIN_ID" style="ellipse;whiteSpace=wrap;html=1;" vertex="1" parent="1">
          <mxGeometry x="255" y="142" width="70" height="40" as="geometry" />
        </mxCell>
        <mxCell id="GJRPg27RzttZ9NQ3WM4D-8" value="USERNAME" style="ellipse;whiteSpace=wrap;html=1;" vertex="1" parent="1">
          <mxGeometry x="336.25" y="142" width="70" height="40" as="geometry" />
        </mxCell>
        <mxCell id="GJRPg27RzttZ9NQ3WM4D-9" value="PASSWORD" style="ellipse;whiteSpace=wrap;html=1;" vertex="1" parent="1">
          <mxGeometry x="417.5" y="142" width="70" height="40" as="geometry" />
        </mxCell>
        <mxCell id="GJRPg27RzttZ9NQ3WM4D-10" value="" style="endArrow=none;html=1;rounded=0;entryX=0.5;entryY=1;entryDx=0;entryDy=0;exitX=0.5;exitY=0;exitDx=0;exitDy=0;" edge="1" parent="1" source="GJRPg27RzttZ9NQ3WM4D-2" target="GJRPg27RzttZ9NQ3WM4D-8">
          <mxGeometry width="50" height="50" relative="1" as="geometry">
            <mxPoint x="328.75" y="272" as="sourcePoint" />
            <mxPoint x="258.75" y="232" as="targetPoint" />
            <Array as="points" />
          </mxGeometry>
        </mxCell>
        <mxCell id="GJRPg27RzttZ9NQ3WM4D-11" value="1" style="text;html=1;align=center;verticalAlign=middle;whiteSpace=wrap;rounded=0;" vertex="1" parent="1">
          <mxGeometry x="363.75" y="422" width="25" height="20" as="geometry" />
        </mxCell>
        <mxCell id="GJRPg27RzttZ9NQ3WM4D-12" value="PDL NAME" style="ellipse;whiteSpace=wrap;html=1;" vertex="1" parent="1">
          <mxGeometry x="80" y="362" width="80" height="40" as="geometry" />
        </mxCell>
        <mxCell id="GJRPg27RzttZ9NQ3WM4D-13" value="DETAILS" style="ellipse;whiteSpace=wrap;html=1;" vertex="1" parent="1">
          <mxGeometry x="10" y="390" width="80" height="40" as="geometry" />
        </mxCell>
        <mxCell id="GJRPg27RzttZ9NQ3WM4D-14" value="" style="endArrow=none;html=1;rounded=0;entryX=0.5;entryY=1;entryDx=0;entryDy=0;exitX=0.381;exitY=0;exitDx=0;exitDy=0;exitPerimeter=0;" edge="1" parent="1" source="GJRPg27RzttZ9NQ3WM4D-4" target="GJRPg27RzttZ9NQ3WM4D-12">
          <mxGeometry width="50" height="50" relative="1" as="geometry">
            <mxPoint x="168.75" y="442" as="sourcePoint" />
            <mxPoint x="218.75" y="392" as="targetPoint" />
          </mxGeometry>
        </mxCell>
        <mxCell id="GJRPg27RzttZ9NQ3WM4D-15" value="" style="endArrow=none;html=1;rounded=0;entryX=0.5;entryY=1;entryDx=0;entryDy=0;exitX=0.25;exitY=0;exitDx=0;exitDy=0;" edge="1" parent="1" source="GJRPg27RzttZ9NQ3WM4D-4">
          <mxGeometry width="50" height="50" relative="1" as="geometry">
            <mxPoint x="128.75" y="472" as="sourcePoint" />
            <mxPoint x="40" y="432" as="targetPoint" />
          </mxGeometry>
        </mxCell>
        <mxCell id="GJRPg27RzttZ9NQ3WM4D-16" value="&lt;font style=&quot;font-size: 10px;&quot;&gt;CELL MEMBER LIST&lt;/font&gt;" style="ellipse;whiteSpace=wrap;html=1;" vertex="1" parent="1">
          <mxGeometry x="597.25" y="171" width="77.5" height="40" as="geometry" />
        </mxCell>
        <mxCell id="GJRPg27RzttZ9NQ3WM4D-17" value="CELL UNIT" style="ellipse;whiteSpace=wrap;html=1;" vertex="1" parent="1">
          <mxGeometry x="735" y="211" width="70" height="40" as="geometry" />
        </mxCell>
        <mxCell id="GJRPg27RzttZ9NQ3WM4D-18" value="GENDER UNIT" style="ellipse;whiteSpace=wrap;html=1;" vertex="1" parent="1">
          <mxGeometry x="681" y="171" width="70" height="40" as="geometry" />
        </mxCell>
        <mxCell id="GJRPg27RzttZ9NQ3WM4D-19" value="" style="endArrow=none;html=1;rounded=0;entryX=0.5;entryY=1;entryDx=0;entryDy=0;exitX=0.5;exitY=0;exitDx=0;exitDy=0;" edge="1" parent="1" source="GJRPg27RzttZ9NQ3WM4D-6" target="GJRPg27RzttZ9NQ3WM4D-16">
          <mxGeometry width="50" height="50" relative="1" as="geometry">
            <mxPoint x="655.75" y="248" as="sourcePoint" />
            <mxPoint x="467.75" y="161" as="targetPoint" />
          </mxGeometry>
        </mxCell>
        <mxCell id="GJRPg27RzttZ9NQ3WM4D-20" value="" style="endArrow=none;html=1;rounded=0;exitX=1;exitY=0;exitDx=0;exitDy=0;entryX=0;entryY=0.5;entryDx=0;entryDy=0;" edge="1" parent="1" source="GJRPg27RzttZ9NQ3WM4D-6" target="GJRPg27RzttZ9NQ3WM4D-17">
          <mxGeometry width="50" height="50" relative="1" as="geometry">
            <mxPoint x="664.75" y="261" as="sourcePoint" />
            <mxPoint x="739.75" y="271" as="targetPoint" />
          </mxGeometry>
        </mxCell>
        <mxCell id="GJRPg27RzttZ9NQ3WM4D-21" value="" style="endArrow=none;html=1;rounded=0;entryX=0.5;entryY=1;entryDx=0;entryDy=0;" edge="1" parent="1" target="GJRPg27RzttZ9NQ3WM4D-18">
          <mxGeometry width="50" height="50" relative="1" as="geometry">
            <mxPoint x="669.75" y="251" as="sourcePoint" />
            <mxPoint x="759.75" y="281" as="targetPoint" />
          </mxGeometry>
        </mxCell>
        <mxCell id="GJRPg27RzttZ9NQ3WM4D-181" style="edgeStyle=orthogonalEdgeStyle;rounded=0;orthogonalLoop=1;jettySize=auto;html=1;entryX=0.5;entryY=0;entryDx=0;entryDy=0;endArrow=none;endFill=0;" edge="1" parent="1" source="GJRPg27RzttZ9NQ3WM4D-22" target="GJRPg27RzttZ9NQ3WM4D-24">
          <mxGeometry relative="1" as="geometry" />
        </mxCell>
        <mxCell id="GJRPg27RzttZ9NQ3WM4D-22" value="PDL INFORMATION" style="rounded=0;whiteSpace=wrap;html=1;" vertex="1" parent="1">
          <mxGeometry x="589.75" y="461" width="105" height="40" as="geometry" />
        </mxCell>
        <mxCell id="GJRPg27RzttZ9NQ3WM4D-23" style="edgeStyle=orthogonalEdgeStyle;rounded=0;orthogonalLoop=1;jettySize=auto;html=1;entryX=0.5;entryY=0;entryDx=0;entryDy=0;endArrow=none;endFill=0;" edge="1" parent="1" source="GJRPg27RzttZ9NQ3WM4D-24" target="GJRPg27RzttZ9NQ3WM4D-25">
          <mxGeometry relative="1" as="geometry">
            <Array as="points">
              <mxPoint x="550" y="752" />
            </Array>
          </mxGeometry>
        </mxCell>
        <mxCell id="GJRPg27RzttZ9NQ3WM4D-24" value="VISITED BY" style="rhombus;whiteSpace=wrap;html=1;" vertex="1" parent="1">
          <mxGeometry x="500" y="632" width="92.5" height="80" as="geometry" />
        </mxCell>
        <mxCell id="GJRPg27RzttZ9NQ3WM4D-25" value="VISITORS" style="rounded=0;whiteSpace=wrap;html=1;" vertex="1" parent="1">
          <mxGeometry x="496.75" y="772" width="105" height="40" as="geometry" />
        </mxCell>
        <mxCell id="GJRPg27RzttZ9NQ3WM4D-26" value="EMAIL" style="ellipse;whiteSpace=wrap;html=1;" vertex="1" parent="1">
          <mxGeometry x="646.25" y="862" width="80" height="40" as="geometry" />
        </mxCell>
        <mxCell id="GJRPg27RzttZ9NQ3WM4D-27" value="USERNAME" style="ellipse;whiteSpace=wrap;html=1;" vertex="1" parent="1">
          <mxGeometry x="458.25" y="922" width="80" height="40" as="geometry" />
        </mxCell>
        <mxCell id="GJRPg27RzttZ9NQ3WM4D-28" value="PASSWORD" style="ellipse;whiteSpace=wrap;html=1;" vertex="1" parent="1">
          <mxGeometry x="385" y="892" width="80" height="40" as="geometry" />
        </mxCell>
        <mxCell id="GJRPg27RzttZ9NQ3WM4D-29" value="NAME" style="ellipse;whiteSpace=wrap;html=1;" vertex="1" parent="1">
          <mxGeometry x="629.75" y="912" width="80" height="40" as="geometry" />
        </mxCell>
        <mxCell id="GJRPg27RzttZ9NQ3WM4D-30" value="CONTACT" style="ellipse;whiteSpace=wrap;html=1;" vertex="1" parent="1">
          <mxGeometry x="544.5" y="922" width="80" height="40" as="geometry" />
        </mxCell>
        <mxCell id="GJRPg27RzttZ9NQ3WM4D-31" value="GENDER" style="ellipse;whiteSpace=wrap;html=1;" vertex="1" parent="1">
          <mxGeometry x="637.75" y="812" width="80" height="40" as="geometry" />
        </mxCell>
        <mxCell id="GJRPg27RzttZ9NQ3WM4D-32" value="CASE" style="ellipse;whiteSpace=wrap;html=1;" vertex="1" parent="1">
          <mxGeometry x="719.75" y="412" width="80" height="40" as="geometry" />
        </mxCell>
        <mxCell id="GJRPg27RzttZ9NQ3WM4D-33" value="STATUS" style="ellipse;whiteSpace=wrap;html=1;" vertex="1" parent="1">
          <mxGeometry x="725" y="452" width="80" height="40" as="geometry" />
        </mxCell>
        <mxCell id="GJRPg27RzttZ9NQ3WM4D-34" value="GENDER" style="ellipse;whiteSpace=wrap;html=1;" vertex="1" parent="1">
          <mxGeometry x="740" y="572" width="80" height="40" as="geometry" />
        </mxCell>
        <mxCell id="GJRPg27RzttZ9NQ3WM4D-35" value="NAME" style="ellipse;whiteSpace=wrap;html=1;" vertex="1" parent="1">
          <mxGeometry x="740" y="689" width="80" height="40" as="geometry" />
        </mxCell>
        <mxCell id="GJRPg27RzttZ9NQ3WM4D-36" value="SENTENCE OF YRS" style="ellipse;whiteSpace=wrap;html=1;" vertex="1" parent="1">
          <mxGeometry x="740" y="651" width="80" height="40" as="geometry" />
        </mxCell>
        <mxCell id="GJRPg27RzttZ9NQ3WM4D-37" value="CRIME" style="ellipse;whiteSpace=wrap;html=1;" vertex="1" parent="1">
          <mxGeometry x="740" y="611" width="80" height="40" as="geometry" />
        </mxCell>
        <mxCell id="GJRPg27RzttZ9NQ3WM4D-38" value="BIRTHDATE" style="ellipse;whiteSpace=wrap;html=1;" vertex="1" parent="1">
          <mxGeometry x="740" y="532" width="80" height="40" as="geometry" />
        </mxCell>
        <mxCell id="GJRPg27RzttZ9NQ3WM4D-39" value="CELL BLOCK" style="ellipse;whiteSpace=wrap;html=1;" vertex="1" parent="1">
          <mxGeometry x="740" y="492" width="80" height="40" as="geometry" />
        </mxCell>
        <mxCell id="GJRPg27RzttZ9NQ3WM4D-40" value="M" style="text;html=1;align=center;verticalAlign=middle;whiteSpace=wrap;rounded=0;" vertex="1" parent="1">
          <mxGeometry x="402.75" y="455" width="25" height="20" as="geometry" />
        </mxCell>
        <mxCell id="GJRPg27RzttZ9NQ3WM4D-41" value="" style="endArrow=none;html=1;rounded=0;entryX=0.5;entryY=1;entryDx=0;entryDy=0;exitX=0.25;exitY=1;exitDx=0;exitDy=0;" edge="1" parent="1" source="GJRPg27RzttZ9NQ3WM4D-11">
          <mxGeometry width="50" height="50" relative="1" as="geometry">
            <mxPoint x="371.1700000000001" y="374" as="sourcePoint" />
            <mxPoint x="371.1700000000001" y="294" as="targetPoint" />
          </mxGeometry>
        </mxCell>
        <mxCell id="GJRPg27RzttZ9NQ3WM4D-42" value="DATE" style="ellipse;whiteSpace=wrap;html=1;" vertex="1" parent="1">
          <mxGeometry x="153.75" y="390" width="80" height="40" as="geometry" />
        </mxCell>
        <mxCell id="GJRPg27RzttZ9NQ3WM4D-43" value="" style="endArrow=none;html=1;rounded=0;entryX=0.5;entryY=1;entryDx=0;entryDy=0;exitX=0.5;exitY=0;exitDx=0;exitDy=0;" edge="1" parent="1" source="GJRPg27RzttZ9NQ3WM4D-4" target="GJRPg27RzttZ9NQ3WM4D-42">
          <mxGeometry width="50" height="50" relative="1" as="geometry">
            <mxPoint x="58.75" y="562" as="sourcePoint" />
            <mxPoint x="108.75" y="512" as="targetPoint" />
          </mxGeometry>
        </mxCell>
        <mxCell id="GJRPg27RzttZ9NQ3WM4D-44" value="" style="endArrow=none;html=1;rounded=0;entryX=0.5;entryY=1;entryDx=0;entryDy=0;exitX=0.25;exitY=0;exitDx=0;exitDy=0;" edge="1" parent="1" source="GJRPg27RzttZ9NQ3WM4D-2" target="GJRPg27RzttZ9NQ3WM4D-7">
          <mxGeometry width="50" height="50" relative="1" as="geometry">
            <mxPoint x="275" y="262" as="sourcePoint" />
            <mxPoint x="275" y="192" as="targetPoint" />
            <Array as="points" />
          </mxGeometry>
        </mxCell>
        <mxCell id="GJRPg27RzttZ9NQ3WM4D-45" value="" style="endArrow=none;html=1;rounded=0;entryX=0.5;entryY=1;entryDx=0;entryDy=0;exitX=0.75;exitY=0;exitDx=0;exitDy=0;" edge="1" parent="1" source="GJRPg27RzttZ9NQ3WM4D-2" target="GJRPg27RzttZ9NQ3WM4D-9">
          <mxGeometry width="50" height="50" relative="1" as="geometry">
            <mxPoint x="381.75" y="262" as="sourcePoint" />
            <mxPoint x="381.75" y="192" as="targetPoint" />
            <Array as="points" />
          </mxGeometry>
        </mxCell>
        <mxCell id="GJRPg27RzttZ9NQ3WM4D-46" value="&lt;div&gt;&lt;b&gt;&lt;font style=&quot;font-size: 20px;&quot;&gt;PDL Management System&lt;/font&gt;&lt;/b&gt;&lt;/div&gt;&lt;b&gt;&lt;font style=&quot;font-size: 20px;&quot;&gt;Entity-Relationship Diagram&lt;/font&gt;&lt;/b&gt;" style="text;html=1;align=center;verticalAlign=middle;resizable=0;points=[];autosize=1;strokeColor=none;fillColor=none;" vertex="1" parent="1">
          <mxGeometry x="269.75" y="40" width="290" height="60" as="geometry" />
        </mxCell>
        <mxCell id="GJRPg27RzttZ9NQ3WM4D-47" value="CELL CAPACITY" style="ellipse;whiteSpace=wrap;html=1;" vertex="1" parent="1">
          <mxGeometry x="740" y="263" width="70" height="40" as="geometry" />
        </mxCell>
        <mxCell id="GJRPg27RzttZ9NQ3WM4D-48" value="" style="endArrow=none;html=1;rounded=0;exitX=1.003;exitY=0.334;exitDx=0;exitDy=0;entryX=0;entryY=0.5;entryDx=0;entryDy=0;exitPerimeter=0;" edge="1" parent="1" source="GJRPg27RzttZ9NQ3WM4D-6" target="GJRPg27RzttZ9NQ3WM4D-47">
          <mxGeometry width="50" height="50" relative="1" as="geometry">
            <mxPoint x="695" y="281" as="sourcePoint" />
            <mxPoint x="746" y="261" as="targetPoint" />
          </mxGeometry>
        </mxCell>
        <mxCell id="GJRPg27RzttZ9NQ3WM4D-49" value="N" style="text;html=1;align=center;verticalAlign=middle;whiteSpace=wrap;rounded=0;" vertex="1" parent="1">
          <mxGeometry x="314" y="455" width="25" height="20" as="geometry" />
        </mxCell>
        <mxCell id="GJRPg27RzttZ9NQ3WM4D-50" value="1" style="text;html=1;align=center;verticalAlign=middle;whiteSpace=wrap;rounded=0;" vertex="1" parent="1">
          <mxGeometry x="639.5" y="330" width="25" height="20" as="geometry" />
        </mxCell>
        <mxCell id="GJRPg27RzttZ9NQ3WM4D-51" style="edgeStyle=orthogonalEdgeStyle;rounded=0;orthogonalLoop=1;jettySize=auto;html=1;entryX=0.5;entryY=0;entryDx=0;entryDy=0;endArrow=none;endFill=0;" edge="1" parent="1" source="GJRPg27RzttZ9NQ3WM4D-52" target="GJRPg27RzttZ9NQ3WM4D-22">
          <mxGeometry relative="1" as="geometry" />
        </mxCell>
        <mxCell id="GJRPg27RzttZ9NQ3WM4D-52" value="ASSIGNED" style="rhombus;whiteSpace=wrap;html=1;" vertex="1" parent="1">
          <mxGeometry x="596" y="350" width="92.5" height="80" as="geometry" />
        </mxCell>
        <mxCell id="GJRPg27RzttZ9NQ3WM4D-53" style="edgeStyle=orthogonalEdgeStyle;rounded=0;orthogonalLoop=1;jettySize=auto;html=1;entryX=0.5;entryY=0;entryDx=0;entryDy=0;endArrow=none;endFill=0;exitX=0.579;exitY=0.926;exitDx=0;exitDy=0;exitPerimeter=0;" edge="1" parent="1" source="GJRPg27RzttZ9NQ3WM4D-52">
          <mxGeometry relative="1" as="geometry">
            <mxPoint x="649.5" y="430" as="sourcePoint" />
            <mxPoint x="649.5" y="462" as="targetPoint" />
          </mxGeometry>
        </mxCell>
        <mxCell id="GJRPg27RzttZ9NQ3WM4D-54" value="N" style="text;html=1;align=center;verticalAlign=middle;whiteSpace=wrap;rounded=0;" vertex="1" parent="1">
          <mxGeometry x="649.75" y="422" width="25" height="20" as="geometry" />
        </mxCell>
        <mxCell id="GJRPg27RzttZ9NQ3WM4D-55" style="edgeStyle=orthogonalEdgeStyle;rounded=0;orthogonalLoop=1;jettySize=auto;html=1;entryX=0;entryY=0.5;entryDx=0;entryDy=0;endArrow=none;endFill=0;" edge="1" parent="1">
          <mxGeometry relative="1" as="geometry">
            <mxPoint x="554.2479891304347" y="270.9817391304348" as="sourcePoint" />
            <mxPoint x="589.75" y="270.98" as="targetPoint" />
          </mxGeometry>
        </mxCell>
        <mxCell id="GJRPg27RzttZ9NQ3WM4D-56" value="MODIFY" style="rhombus;whiteSpace=wrap;html=1;" vertex="1" parent="1">
          <mxGeometry x="461.75" y="231" width="92.5" height="80" as="geometry" />
        </mxCell>
        <mxCell id="GJRPg27RzttZ9NQ3WM4D-57" style="edgeStyle=orthogonalEdgeStyle;rounded=0;orthogonalLoop=1;jettySize=auto;html=1;entryX=0.001;entryY=0.307;entryDx=0;entryDy=0;endArrow=none;endFill=0;entryPerimeter=0;exitX=0.908;exitY=0.403;exitDx=0;exitDy=0;exitPerimeter=0;" edge="1" parent="1" source="GJRPg27RzttZ9NQ3WM4D-56" target="GJRPg27RzttZ9NQ3WM4D-6">
          <mxGeometry relative="1" as="geometry">
            <mxPoint x="549.7479891304347" y="263.00173913043477" as="sourcePoint" />
            <mxPoint x="585.25" y="263" as="targetPoint" />
          </mxGeometry>
        </mxCell>
        <mxCell id="GJRPg27RzttZ9NQ3WM4D-58" value="1" style="text;html=1;align=center;verticalAlign=middle;whiteSpace=wrap;rounded=0;" vertex="1" parent="1">
          <mxGeometry x="449.75" y="251" width="25" height="20" as="geometry" />
        </mxCell>
        <mxCell id="GJRPg27RzttZ9NQ3WM4D-59" value="N" style="text;html=1;align=center;verticalAlign=middle;whiteSpace=wrap;rounded=0;" vertex="1" parent="1">
          <mxGeometry x="534.75" y="243" width="25" height="20" as="geometry" />
        </mxCell>
        <mxCell id="GJRPg27RzttZ9NQ3WM4D-60" style="edgeStyle=orthogonalEdgeStyle;rounded=0;orthogonalLoop=1;jettySize=auto;html=1;entryX=1;entryY=0.5;entryDx=0;entryDy=0;endArrow=none;endFill=0;" edge="1" parent="1" source="GJRPg27RzttZ9NQ3WM4D-3" target="GJRPg27RzttZ9NQ3WM4D-4">
          <mxGeometry relative="1" as="geometry" />
        </mxCell>
        <mxCell id="GJRPg27RzttZ9NQ3WM4D-61" style="edgeStyle=orthogonalEdgeStyle;rounded=0;orthogonalLoop=1;jettySize=auto;html=1;entryX=0.962;entryY=0.5;entryDx=0;entryDy=0;entryPerimeter=0;endArrow=none;endFill=0;exitX=0.103;exitY=0.405;exitDx=0;exitDy=0;exitPerimeter=0;" edge="1" parent="1" source="GJRPg27RzttZ9NQ3WM4D-3">
          <mxGeometry relative="1" as="geometry">
            <mxPoint x="328.75" y="474.6600000000001" as="sourcePoint" />
            <mxPoint x="233.75" y="474.6600000000001" as="targetPoint" />
          </mxGeometry>
        </mxCell>
        <mxCell id="GJRPg27RzttZ9NQ3WM4D-62" value="" style="endArrow=none;html=1;rounded=0;entryX=0.75;entryY=0;entryDx=0;entryDy=0;exitX=0;exitY=0.5;exitDx=0;exitDy=0;" edge="1" parent="1" source="GJRPg27RzttZ9NQ3WM4D-32" target="GJRPg27RzttZ9NQ3WM4D-22">
          <mxGeometry width="50" height="50" relative="1" as="geometry">
            <mxPoint x="689.75" y="541" as="sourcePoint" />
            <mxPoint x="597.25" y="548" as="targetPoint" />
          </mxGeometry>
        </mxCell>
        <mxCell id="GJRPg27RzttZ9NQ3WM4D-63" value="" style="endArrow=none;html=1;rounded=0;entryX=1;entryY=0;entryDx=0;entryDy=0;exitX=0;exitY=0.5;exitDx=0;exitDy=0;" edge="1" parent="1" source="GJRPg27RzttZ9NQ3WM4D-33" target="GJRPg27RzttZ9NQ3WM4D-22">
          <mxGeometry width="50" height="50" relative="1" as="geometry">
            <mxPoint x="729.75" y="442" as="sourcePoint" />
            <mxPoint x="678.75" y="471" as="targetPoint" />
          </mxGeometry>
        </mxCell>
        <mxCell id="GJRPg27RzttZ9NQ3WM4D-64" value="" style="endArrow=none;html=1;rounded=0;entryX=1;entryY=0.25;entryDx=0;entryDy=0;exitX=0;exitY=0.5;exitDx=0;exitDy=0;" edge="1" parent="1" source="GJRPg27RzttZ9NQ3WM4D-39" target="GJRPg27RzttZ9NQ3WM4D-22">
          <mxGeometry width="50" height="50" relative="1" as="geometry">
            <mxPoint x="745.75" y="482" as="sourcePoint" />
            <mxPoint x="704.75" y="471" as="targetPoint" />
          </mxGeometry>
        </mxCell>
        <mxCell id="GJRPg27RzttZ9NQ3WM4D-65" value="" style="endArrow=none;html=1;rounded=0;entryX=1;entryY=0.5;entryDx=0;entryDy=0;exitX=0;exitY=0.5;exitDx=0;exitDy=0;" edge="1" parent="1" source="GJRPg27RzttZ9NQ3WM4D-38" target="GJRPg27RzttZ9NQ3WM4D-22">
          <mxGeometry width="50" height="50" relative="1" as="geometry">
            <mxPoint x="750.75" y="533" as="sourcePoint" />
            <mxPoint x="694.75" y="492" as="targetPoint" />
          </mxGeometry>
        </mxCell>
        <mxCell id="GJRPg27RzttZ9NQ3WM4D-66" value="" style="endArrow=none;html=1;rounded=0;entryX=1;entryY=0.75;entryDx=0;entryDy=0;exitX=0;exitY=0.5;exitDx=0;exitDy=0;" edge="1" parent="1" source="GJRPg27RzttZ9NQ3WM4D-34" target="GJRPg27RzttZ9NQ3WM4D-22">
          <mxGeometry width="50" height="50" relative="1" as="geometry">
            <mxPoint x="744" y="582" as="sourcePoint" />
            <mxPoint x="688" y="511" as="targetPoint" />
          </mxGeometry>
        </mxCell>
        <mxCell id="GJRPg27RzttZ9NQ3WM4D-67" value="" style="endArrow=none;html=1;rounded=0;entryX=1;entryY=1;entryDx=0;entryDy=0;exitX=0;exitY=0.5;exitDx=0;exitDy=0;" edge="1" parent="1" source="GJRPg27RzttZ9NQ3WM4D-37" target="GJRPg27RzttZ9NQ3WM4D-22">
          <mxGeometry width="50" height="50" relative="1" as="geometry">
            <mxPoint x="744" y="632" as="sourcePoint" />
            <mxPoint x="688" y="531" as="targetPoint" />
          </mxGeometry>
        </mxCell>
        <mxCell id="GJRPg27RzttZ9NQ3WM4D-68" value="" style="endArrow=none;html=1;rounded=0;entryX=0.893;entryY=0.999;entryDx=0;entryDy=0;exitX=0;exitY=0.5;exitDx=0;exitDy=0;entryPerimeter=0;" edge="1" parent="1" source="GJRPg27RzttZ9NQ3WM4D-36" target="GJRPg27RzttZ9NQ3WM4D-22">
          <mxGeometry width="50" height="50" relative="1" as="geometry">
            <mxPoint x="737" y="657" as="sourcePoint" />
            <mxPoint x="681" y="527" as="targetPoint" />
          </mxGeometry>
        </mxCell>
        <mxCell id="GJRPg27RzttZ9NQ3WM4D-69" value="" style="endArrow=none;html=1;rounded=0;entryX=0.814;entryY=1.019;entryDx=0;entryDy=0;exitX=0;exitY=0.5;exitDx=0;exitDy=0;entryPerimeter=0;" edge="1" parent="1" source="GJRPg27RzttZ9NQ3WM4D-35" target="GJRPg27RzttZ9NQ3WM4D-22">
          <mxGeometry width="50" height="50" relative="1" as="geometry">
            <mxPoint x="760.75" y="681" as="sourcePoint" />
            <mxPoint x="693.75" y="511" as="targetPoint" />
          </mxGeometry>
        </mxCell>
        <mxCell id="GJRPg27RzttZ9NQ3WM4D-70" style="edgeStyle=orthogonalEdgeStyle;rounded=0;orthogonalLoop=1;jettySize=auto;html=1;entryX=0;entryY=0.5;entryDx=0;entryDy=0;endArrow=none;endFill=0;" edge="1" parent="1" source="GJRPg27RzttZ9NQ3WM4D-71" target="GJRPg27RzttZ9NQ3WM4D-73">
          <mxGeometry relative="1" as="geometry" />
        </mxCell>
        <mxCell id="GJRPg27RzttZ9NQ3WM4D-71" value="&lt;div&gt;VISITATION&lt;/div&gt;SCHEDULE" style="rounded=0;whiteSpace=wrap;html=1;" vertex="1" parent="1">
          <mxGeometry x="193" y="772" width="105" height="40" as="geometry" />
        </mxCell>
        <mxCell id="GJRPg27RzttZ9NQ3WM4D-72" style="edgeStyle=orthogonalEdgeStyle;rounded=0;orthogonalLoop=1;jettySize=auto;html=1;entryX=0;entryY=0.5;entryDx=0;entryDy=0;endArrow=none;endFill=0;" edge="1" parent="1" source="GJRPg27RzttZ9NQ3WM4D-73" target="GJRPg27RzttZ9NQ3WM4D-25">
          <mxGeometry relative="1" as="geometry" />
        </mxCell>
        <mxCell id="GJRPg27RzttZ9NQ3WM4D-73" value="&lt;font style=&quot;font-size: 10px;&quot;&gt;APPOINTMENT&lt;/font&gt;&lt;div style=&quot;font-size: 10px;&quot;&gt;&lt;font style=&quot;font-size: 10px;&quot;&gt;SETUP&lt;/font&gt;&lt;/div&gt;" style="rhombus;whiteSpace=wrap;html=1;" vertex="1" parent="1">
          <mxGeometry x="350.5" y="752" width="92.5" height="80" as="geometry" />
        </mxCell>
        <mxCell id="GJRPg27RzttZ9NQ3WM4D-74" value="" style="endArrow=none;html=1;rounded=0;entryX=0.093;entryY=1.001;entryDx=0;entryDy=0;exitX=0.5;exitY=0;exitDx=0;exitDy=0;entryPerimeter=0;" edge="1" parent="1" source="GJRPg27RzttZ9NQ3WM4D-28" target="GJRPg27RzttZ9NQ3WM4D-25">
          <mxGeometry width="50" height="50" relative="1" as="geometry">
            <mxPoint x="550" y="902" as="sourcePoint" />
            <mxPoint x="568" y="842" as="targetPoint" />
          </mxGeometry>
        </mxCell>
        <mxCell id="GJRPg27RzttZ9NQ3WM4D-75" value="" style="endArrow=none;html=1;rounded=0;entryX=0.25;entryY=1;entryDx=0;entryDy=0;exitX=0.5;exitY=0;exitDx=0;exitDy=0;" edge="1" parent="1" source="GJRPg27RzttZ9NQ3WM4D-27" target="GJRPg27RzttZ9NQ3WM4D-25">
          <mxGeometry width="50" height="50" relative="1" as="geometry">
            <mxPoint x="485.25" y="902" as="sourcePoint" />
            <mxPoint x="538.25" y="832" as="targetPoint" />
          </mxGeometry>
        </mxCell>
        <mxCell id="GJRPg27RzttZ9NQ3WM4D-76" value="" style="endArrow=none;html=1;rounded=0;entryX=0.394;entryY=1.011;entryDx=0;entryDy=0;exitX=0.5;exitY=0;exitDx=0;exitDy=0;entryPerimeter=0;" edge="1" parent="1" source="GJRPg27RzttZ9NQ3WM4D-30" target="GJRPg27RzttZ9NQ3WM4D-25">
          <mxGeometry width="50" height="50" relative="1" as="geometry">
            <mxPoint x="508" y="932" as="sourcePoint" />
            <mxPoint x="533" y="822" as="targetPoint" />
          </mxGeometry>
        </mxCell>
        <mxCell id="GJRPg27RzttZ9NQ3WM4D-77" value="" style="endArrow=none;html=1;rounded=0;entryX=0.5;entryY=1;entryDx=0;entryDy=0;exitX=0;exitY=0;exitDx=0;exitDy=0;" edge="1" parent="1" source="GJRPg27RzttZ9NQ3WM4D-29" target="GJRPg27RzttZ9NQ3WM4D-25">
          <mxGeometry width="50" height="50" relative="1" as="geometry">
            <mxPoint x="624.5" y="922" as="sourcePoint" />
            <mxPoint x="578.5" y="812" as="targetPoint" />
          </mxGeometry>
        </mxCell>
        <mxCell id="GJRPg27RzttZ9NQ3WM4D-78" value="" style="endArrow=none;html=1;rounded=0;entryX=0.75;entryY=1;entryDx=0;entryDy=0;exitX=0;exitY=0.5;exitDx=0;exitDy=0;" edge="1" parent="1" source="GJRPg27RzttZ9NQ3WM4D-26" target="GJRPg27RzttZ9NQ3WM4D-25">
          <mxGeometry width="50" height="50" relative="1" as="geometry">
            <mxPoint x="642" y="878" as="sourcePoint" />
            <mxPoint x="550" y="772" as="targetPoint" />
          </mxGeometry>
        </mxCell>
        <mxCell id="GJRPg27RzttZ9NQ3WM4D-79" value="" style="endArrow=none;html=1;rounded=0;exitX=0;exitY=0.5;exitDx=0;exitDy=0;entryX=1;entryY=1;entryDx=0;entryDy=0;" edge="1" parent="1" source="GJRPg27RzttZ9NQ3WM4D-31" target="GJRPg27RzttZ9NQ3WM4D-25">
          <mxGeometry width="50" height="50" relative="1" as="geometry">
            <mxPoint x="656" y="892" as="sourcePoint" />
            <mxPoint x="610" y="812" as="targetPoint" />
          </mxGeometry>
        </mxCell>
        <mxCell id="GJRPg27RzttZ9NQ3WM4D-80" value="1" style="text;html=1;align=center;verticalAlign=middle;whiteSpace=wrap;rounded=0;" vertex="1" parent="1">
          <mxGeometry x="544.5" y="612" width="25" height="20" as="geometry" />
        </mxCell>
        <mxCell id="GJRPg27RzttZ9NQ3WM4D-81" value="1" style="text;html=1;align=center;verticalAlign=middle;whiteSpace=wrap;rounded=0;" vertex="1" parent="1">
          <mxGeometry x="550" y="702" width="25" height="20" as="geometry" />
        </mxCell>
        <mxCell id="GJRPg27RzttZ9NQ3WM4D-82" value="TIME" style="ellipse;whiteSpace=wrap;html=1;" vertex="1" parent="1">
          <mxGeometry x="80" y="752" width="80" height="40" as="geometry" />
        </mxCell>
        <mxCell id="GJRPg27RzttZ9NQ3WM4D-83" value="DATE" style="ellipse;whiteSpace=wrap;html=1;" vertex="1" parent="1">
          <mxGeometry x="80" y="802" width="80" height="40" as="geometry" />
        </mxCell>
        <mxCell id="GJRPg27RzttZ9NQ3WM4D-84" value="" style="endArrow=none;html=1;rounded=0;entryX=0;entryY=0.75;entryDx=0;entryDy=0;exitX=1;exitY=0.5;exitDx=0;exitDy=0;" edge="1" parent="1" source="GJRPg27RzttZ9NQ3WM4D-83" target="GJRPg27RzttZ9NQ3WM4D-71">
          <mxGeometry width="50" height="50" relative="1" as="geometry">
            <mxPoint x="170" y="902" as="sourcePoint" />
            <mxPoint x="252" y="822" as="targetPoint" />
          </mxGeometry>
        </mxCell>
        <mxCell id="GJRPg27RzttZ9NQ3WM4D-85" value="" style="endArrow=none;html=1;rounded=0;entryX=0;entryY=0.25;entryDx=0;entryDy=0;exitX=1;exitY=0.5;exitDx=0;exitDy=0;" edge="1" parent="1" source="GJRPg27RzttZ9NQ3WM4D-82" target="GJRPg27RzttZ9NQ3WM4D-71">
          <mxGeometry width="50" height="50" relative="1" as="geometry">
            <mxPoint x="170" y="852" as="sourcePoint" />
            <mxPoint x="203" y="812" as="targetPoint" />
          </mxGeometry>
        </mxCell>
        <mxCell id="GJRPg27RzttZ9NQ3WM4D-86" value="1" style="text;html=1;align=center;verticalAlign=middle;whiteSpace=wrap;rounded=0;" vertex="1" parent="1">
          <mxGeometry x="330" y="772" width="25" height="20" as="geometry" />
        </mxCell>
        <mxCell id="GJRPg27RzttZ9NQ3WM4D-87" value="1" style="text;html=1;align=center;verticalAlign=middle;whiteSpace=wrap;rounded=0;" vertex="1" parent="1">
          <mxGeometry x="433.25" y="772" width="25" height="20" as="geometry" />
        </mxCell>
        <mxCell id="GJRPg27RzttZ9NQ3WM4D-88" style="edgeStyle=orthogonalEdgeStyle;rounded=0;orthogonalLoop=1;jettySize=auto;html=1;entryX=1;entryY=0.5;entryDx=0;entryDy=0;endArrow=none;endFill=0;exitX=0.002;exitY=0.543;exitDx=0;exitDy=0;exitPerimeter=0;" edge="1" parent="1" source="GJRPg27RzttZ9NQ3WM4D-22" target="GJRPg27RzttZ9NQ3WM4D-3">
          <mxGeometry relative="1" as="geometry">
            <mxPoint x="508.5" y="482" as="sourcePoint" />
            <mxPoint x="417.5" y="482" as="targetPoint" />
          </mxGeometry>
        </mxCell>
        <mxCell id="GJRPg27RzttZ9NQ3WM4D-182" style="edgeStyle=orthogonalEdgeStyle;rounded=0;orthogonalLoop=1;jettySize=auto;html=1;endArrow=none;endFill=0;exitX=0;exitY=0.25;exitDx=0;exitDy=0;" edge="1" parent="1">
          <mxGeometry relative="1" as="geometry">
            <mxPoint x="589.75" y="477" as="sourcePoint" />
            <mxPoint x="410" y="476" as="targetPoint" />
            <Array as="points">
              <mxPoint x="590" y="476" />
            </Array>
          </mxGeometry>
        </mxCell>
      </root>
    </mxGraphModel>
  </diagram>
</mxfile>
